<mxfile host="Electron" modified="2023-05-09T10:53:32.284Z" agent="Mozilla/5.0 (Windows NT 10.0; Win64; x64) AppleWebKit/537.36 (KHTML, like Gecko) draw.io/21.2.8 Chrome/112.0.5615.165 Electron/24.2.0 Safari/537.36" etag="UNgDfdjw_35ALLhvt0Gj" version="21.2.8" type="device">
  <diagram name="Page-1" id="vMRXTCQX2fNt1NvfBW1m">
    <mxGraphModel dx="1036" dy="614" grid="1" gridSize="10" guides="1" tooltips="1" connect="1" arrows="1" fold="1" page="1" pageScale="1" pageWidth="1169" pageHeight="827" math="0" shadow="0">
      <root>
        <mxCell id="0" />
        <mxCell id="1" parent="0" />
        <mxCell id="f5kJIztFK3Bd6Y3ZRxWH-22" value="" style="rounded=0;whiteSpace=wrap;html=1;fillColor=#eeeeee;strokeColor=#36393d;" parent="1" vertex="1">
          <mxGeometry x="420" y="20" width="690" height="760" as="geometry" />
        </mxCell>
        <mxCell id="f5kJIztFK3Bd6Y3ZRxWH-21" value="" style="rounded=0;whiteSpace=wrap;html=1;fillColor=#eeeeee;strokeColor=#36393d;" parent="1" vertex="1">
          <mxGeometry x="10" y="20" width="220" height="760" as="geometry" />
        </mxCell>
        <mxCell id="f5kJIztFK3Bd6Y3ZRxWH-1" value="- Browsers&lt;br style=&quot;font-size: 15px;&quot;&gt;Users" style="rounded=1;whiteSpace=wrap;html=1;fontSize=15;" parent="1" vertex="1">
          <mxGeometry x="30" y="40" width="180" height="700" as="geometry" />
        </mxCell>
        <mxCell id="f5kJIztFK3Bd6Y3ZRxWH-2" value="" style="shape=flexArrow;endArrow=classic;html=1;rounded=0;endWidth=51.11111111111111;endSize=19.046153846153846;width=38.46153846153846;fillColor=default;" parent="1" edge="1">
          <mxGeometry width="50" height="50" relative="1" as="geometry">
            <mxPoint x="237" y="390" as="sourcePoint" />
            <mxPoint x="407" y="390" as="targetPoint" />
          </mxGeometry>
        </mxCell>
        <mxCell id="f5kJIztFK3Bd6Y3ZRxWH-4" value="&lt;div style=&quot;&quot;&gt;&lt;span style=&quot;background-color: initial;&quot;&gt;&amp;nbsp;- .NET 7&lt;/span&gt;&lt;/div&gt;&lt;div style=&quot;&quot;&gt;&lt;span style=&quot;background-color: initial;&quot;&gt;&amp;nbsp;- TYPESCRIPT&lt;/span&gt;&lt;/div&gt;&amp;nbsp;- WEBCOMPONENTS&lt;br style=&quot;font-size: 15px;&quot;&gt;&amp;nbsp;- LIBRARY FAST" style="rounded=1;whiteSpace=wrap;html=1;fontSize=15;align=left;arcSize=15;" parent="1" vertex="1">
          <mxGeometry x="447" y="40" width="180" height="330" as="geometry" />
        </mxCell>
        <mxCell id="f5kJIztFK3Bd6Y3ZRxWH-5" value="- SERVICE BUS" style="rounded=1;whiteSpace=wrap;html=1;fontSize=15;" parent="1" vertex="1">
          <mxGeometry x="673" y="40" width="170" height="220" as="geometry" />
        </mxCell>
        <mxCell id="f5kJIztFK3Bd6Y3ZRxWH-6" value="" style="rounded=1;whiteSpace=wrap;html=1;fontSize=15;" parent="1" vertex="1">
          <mxGeometry x="894" y="40" width="180" height="700" as="geometry" />
        </mxCell>
        <mxCell id="f5kJIztFK3Bd6Y3ZRxWH-7" value="- Azure SignalR" style="rounded=1;whiteSpace=wrap;html=1;fontSize=15;fillColor=#fad7ac;strokeColor=#b46504;" parent="1" vertex="1">
          <mxGeometry x="447" y="390" width="180" height="350" as="geometry" />
        </mxCell>
        <mxCell id="f5kJIztFK3Bd6Y3ZRxWH-8" value="SQL&lt;br style=&quot;font-size: 15px;&quot;&gt;Server&lt;br style=&quot;font-size: 15px;&quot;&gt;DATABASE" style="shape=cylinder3;whiteSpace=wrap;html=1;boundedLbl=1;backgroundOutline=1;size=15;fontSize=15;" parent="1" vertex="1">
          <mxGeometry x="909.5" y="450" width="150" height="242" as="geometry" />
        </mxCell>
        <mxCell id="f5kJIztFK3Bd6Y3ZRxWH-9" value="Azure&lt;br style=&quot;font-size: 15px;&quot;&gt;STORAGE&lt;br style=&quot;font-size: 15px;&quot;&gt;Account" style="shape=cylinder3;whiteSpace=wrap;html=1;boundedLbl=1;backgroundOutline=1;size=15;fontSize=15;" parent="1" vertex="1">
          <mxGeometry x="909" y="163" width="150" height="237" as="geometry" />
        </mxCell>
        <mxCell id="f5kJIztFK3Bd6Y3ZRxWH-10" value="- Azure Cognitive Service" style="rounded=1;whiteSpace=wrap;html=1;fontSize=15;fillColor=#b1ddf0;strokeColor=#10739e;" parent="1" vertex="1">
          <mxGeometry x="673" y="510" width="170" height="230" as="geometry" />
        </mxCell>
        <mxCell id="f5kJIztFK3Bd6Y3ZRxWH-11" value="- .NET 7" style="rounded=1;whiteSpace=wrap;html=1;fontSize=15;" parent="1" vertex="1">
          <mxGeometry x="673" y="276" width="170" height="220" as="geometry" />
        </mxCell>
        <mxCell id="f5kJIztFK3Bd6Y3ZRxWH-12" value="WEB" style="text;html=1;strokeColor=none;fillColor=none;align=center;verticalAlign=middle;whiteSpace=wrap;rounded=0;fontSize=20;fontStyle=3" parent="1" vertex="1">
          <mxGeometry x="482" y="50" width="100" height="30" as="geometry" />
        </mxCell>
        <mxCell id="f5kJIztFK3Bd6Y3ZRxWH-13" value="QUEUES" style="text;html=1;strokeColor=none;fillColor=none;align=center;verticalAlign=middle;whiteSpace=wrap;rounded=0;fontSize=20;fontStyle=3" parent="1" vertex="1">
          <mxGeometry x="707" y="50" width="103" height="30" as="geometry" />
        </mxCell>
        <mxCell id="f5kJIztFK3Bd6Y3ZRxWH-14" value="DATA TIER" style="text;html=1;strokeColor=none;fillColor=none;align=center;verticalAlign=middle;whiteSpace=wrap;rounded=0;fontSize=20;fontStyle=3" parent="1" vertex="1">
          <mxGeometry x="939" y="62" width="91" height="30" as="geometry" />
        </mxCell>
        <mxCell id="f5kJIztFK3Bd6Y3ZRxWH-16" value="WEB SOCKET&lt;br&gt;SERVICE" style="text;html=1;strokeColor=none;fillColor=none;align=center;verticalAlign=middle;whiteSpace=wrap;rounded=0;fontSize=20;fontStyle=3" parent="1" vertex="1">
          <mxGeometry x="469.5" y="420" width="130.5" height="30" as="geometry" />
        </mxCell>
        <mxCell id="f5kJIztFK3Bd6Y3ZRxWH-17" value="COGNITIVE SERVICE" style="text;html=1;strokeColor=none;fillColor=none;align=center;verticalAlign=middle;whiteSpace=wrap;rounded=0;fontSize=20;fontStyle=3" parent="1" vertex="1">
          <mxGeometry x="705" y="530" width="105" height="30" as="geometry" />
        </mxCell>
        <mxCell id="f5kJIztFK3Bd6Y3ZRxWH-18" value="BACK&lt;br&gt;GROUND&lt;br&gt;WORKERS" style="text;html=1;strokeColor=none;fillColor=none;align=center;verticalAlign=middle;whiteSpace=wrap;rounded=0;fontSize=20;fontStyle=3" parent="1" vertex="1">
          <mxGeometry x="707" y="307" width="103" height="30" as="geometry" />
        </mxCell>
        <mxCell id="f5kJIztFK3Bd6Y3ZRxWH-19" value="CLIENTS" style="text;html=1;strokeColor=none;fillColor=none;align=center;verticalAlign=middle;whiteSpace=wrap;rounded=0;fontSize=20;fontStyle=3" parent="1" vertex="1">
          <mxGeometry x="60" y="50" width="120" height="30" as="geometry" />
        </mxCell>
      </root>
    </mxGraphModel>
  </diagram>
</mxfile>
